<mxfile host="app.diagrams.net" modified="2023-06-16T10:44:04.931Z" agent="Mozilla/5.0 (X11; Ubuntu; Linux x86_64; rv:109.0) Gecko/20100101 Firefox/114.0" etag="jabNuzxyLqvoTDWYOqtC" version="21.3.6" type="device">
  <diagram name="Page-1" id="if91Ejzg_885sPlbpT9M">
    <mxGraphModel dx="1285" dy="823" grid="1" gridSize="10" guides="1" tooltips="1" connect="1" arrows="1" fold="1" page="1" pageScale="1" pageWidth="827" pageHeight="1169" math="0" shadow="0">
      <root>
        <mxCell id="0" />
        <mxCell id="1" parent="0" />
        <mxCell id="anagbakZnro_QeExX_0X-5" value="" style="edgeStyle=orthogonalEdgeStyle;rounded=0;orthogonalLoop=1;jettySize=auto;html=1;" edge="1" parent="1" source="anagbakZnro_QeExX_0X-1" target="anagbakZnro_QeExX_0X-2">
          <mxGeometry relative="1" as="geometry" />
        </mxCell>
        <mxCell id="anagbakZnro_QeExX_0X-1" value="&lt;div&gt;lib_sphinxkt&lt;/div&gt;" style="rounded=0;whiteSpace=wrap;html=1;fillColor=#d5e8d4;strokeColor=#82b366;dashed=1;" vertex="1" parent="1">
          <mxGeometry x="220" y="160" width="120" height="40" as="geometry" />
        </mxCell>
        <mxCell id="anagbakZnro_QeExX_0X-4" value="" style="edgeStyle=orthogonalEdgeStyle;rounded=0;orthogonalLoop=1;jettySize=auto;html=1;" edge="1" parent="1" source="anagbakZnro_QeExX_0X-2" target="anagbakZnro_QeExX_0X-3">
          <mxGeometry relative="1" as="geometry" />
        </mxCell>
        <mxCell id="anagbakZnro_QeExX_0X-2" value="&lt;div&gt;rust_sphinx_wrapper&lt;/div&gt;" style="rounded=0;whiteSpace=wrap;html=1;fillColor=#d5e8d4;strokeColor=#82b366;dashed=1;" vertex="1" parent="1">
          <mxGeometry x="80" y="160" width="120" height="40" as="geometry" />
        </mxCell>
        <mxCell id="anagbakZnro_QeExX_0X-3" value="nymtech/sphinx" style="rounded=0;whiteSpace=wrap;html=1;fillColor=#d5e8d4;strokeColor=#82b366;dashed=1;" vertex="1" parent="1">
          <mxGeometry x="80" y="220" width="120" height="40" as="geometry" />
        </mxCell>
        <mxCell id="anagbakZnro_QeExX_0X-7" value="" style="edgeStyle=orthogonalEdgeStyle;rounded=0;orthogonalLoop=1;jettySize=auto;html=1;" edge="1" parent="1" source="anagbakZnro_QeExX_0X-6" target="anagbakZnro_QeExX_0X-1">
          <mxGeometry relative="1" as="geometry" />
        </mxCell>
        <mxCell id="anagbakZnro_QeExX_0X-6" value="lib_common" style="rounded=0;whiteSpace=wrap;html=1;fillColor=#d5e8d4;strokeColor=#82b366;dashed=1;" vertex="1" parent="1">
          <mxGeometry x="360" y="160" width="120" height="40" as="geometry" />
        </mxCell>
        <mxCell id="anagbakZnro_QeExX_0X-11" value="" style="edgeStyle=orthogonalEdgeStyle;rounded=0;orthogonalLoop=1;jettySize=auto;html=1;" edge="1" parent="1" source="anagbakZnro_QeExX_0X-8" target="anagbakZnro_QeExX_0X-6">
          <mxGeometry relative="1" as="geometry" />
        </mxCell>
        <mxCell id="anagbakZnro_QeExX_0X-8" value="&lt;div&gt;app_metronom&lt;/div&gt;" style="rounded=0;whiteSpace=wrap;html=1;fillColor=#d5e8d4;strokeColor=#82b366;" vertex="1" parent="1">
          <mxGeometry x="500" y="160" width="120" height="40" as="geometry" />
        </mxCell>
        <mxCell id="anagbakZnro_QeExX_0X-10" style="edgeStyle=orthogonalEdgeStyle;rounded=0;orthogonalLoop=1;jettySize=auto;html=1;entryX=0.5;entryY=0;entryDx=0;entryDy=0;" edge="1" parent="1" source="anagbakZnro_QeExX_0X-9" target="anagbakZnro_QeExX_0X-6">
          <mxGeometry relative="1" as="geometry" />
        </mxCell>
        <mxCell id="anagbakZnro_QeExX_0X-9" value="app_energy_runner" style="rounded=0;whiteSpace=wrap;html=1;fillColor=#d5e8d4;strokeColor=#82b366;" vertex="1" parent="1">
          <mxGeometry x="500" y="100" width="120" height="40" as="geometry" />
        </mxCell>
      </root>
    </mxGraphModel>
  </diagram>
</mxfile>
